<svg id="all_layers" data-name="all layers" xmlns="http://www.w3.org/2000/svg" viewBox="0 0 2994.25 715.52"><defs><style>.cls-1{fill:#18a2f9;}.cls-2{fill:#2549bf;}.cls-3{fill:#0060b7;}.cls-4{fill:#095292;}.cls-5{fill:#022a84;}</style></defs><title>Vector Smart Object</title><polygon class="cls-1" points="851.36 418.72 884.86 418.72 884.86 550.58 1056.15 550.58 1056.15 418.72 1089.65 418.72 1089.65 715.52 1056.15 715.52 1056.15 581.96 884.86 581.96 884.86 715.52 851.36 715.52 851.36 418.72"/><polygon class="cls-1" points="1267.3 418.72 1481.84 418.72 1481.84 449.25 1300.8 449.25 1300.8 550.58 1462.76 550.58 1462.76 581.11 1300.8 581.11 1300.8 684.99 1483.96 684.99 1483.96 715.52 1267.3 715.52 1267.3 418.72"/><path class="cls-1" d="M2974.9,4180.68h31.38l135.25,298.92h-36l-34.77-78.44H2909.18L2874,4479.6h-34.34Zm82.68,190.37-67.42-151.37-67.84,151.37h135.25Z" transform="translate(-1220 -3764.08)"/><polygon class="cls-1" points="2073.75 418.72 2107.24 418.72 2107.24 684.57 2274.3 684.57 2274.3 715.52 2073.75 715.52 2073.75 418.72"/><polygon class="cls-1" points="2465.94 449.67 2366.3 449.67 2366.3 418.72 2599.5 418.72 2599.5 449.67 2499.86 449.67 2499.86 715.52 2465.94 715.52 2465.94 449.67"/><polygon class="cls-1" points="2755.96 418.72 2789.45 418.72 2789.45 550.58 2960.75 550.58 2960.75 418.72 2994.24 418.72 2994.24 715.52 2960.75 715.52 2960.75 581.96 2789.45 581.96 2789.45 715.52 2755.96 715.52 2755.96 418.72"/><polygon class="cls-2" points="857.58 232.49 1003.56 68.21 862.57 68.21 862.57 0 1115.02 0 1115.02 58.64 969.04 222.92 1115.02 222.92 1115.02 291.13 857.58 291.13 857.58 232.49"/><polygon class="cls-2" points="1235.61 0 1469.76 0 1469.76 68.62 1315.47 68.62 1315.47 112.71 1455.21 112.71 1455.21 176.34 1315.47 176.34 1315.47 222.5 1471.84 222.5 1471.84 291.13 1235.61 291.13 1235.61 0"/><path class="cls-2" d="M2812,3764.08h124.77c73.61,0,121,37.85,121,102.31v0.83c0,68.62-52.82,104.81-125.18,104.81H2892.7v83.18H2812V3764.08ZM2931,3908.81c28.7,0,46.16-15,46.16-37.84v-0.83c0-25-17.47-38.26-46.58-38.26H2892.7v76.94H2931Z" transform="translate(-1220 -3764.08)"/><polygon class="cls-2" points="1950.91 0 2031.6 0 2031.6 108.97 2135.16 108.97 2135.16 0 2215.84 0 2215.84 291.13 2135.16 291.13 2135.16 180.5 2031.6 180.5 2031.6 291.13 1950.91 291.13 1950.91 0"/><polygon class="cls-2" points="2430.41 182.16 2319.78 0 2411.7 0 2471.59 106.05 2531.89 0 2622.14 0 2511.51 180.91 2511.51 291.13 2430.41 291.13 2430.41 182.16"/><path class="cls-2" d="M3946.09,3764.08h137.66c44.5,0,75.28,11.65,94.82,31.61,17.05,16.64,25.79,39.09,25.79,67.79v0.83c0,44.5-23.71,74-59.89,89.42l69.46,101.48h-93.16L4062.13,3967h-35.35v88.17h-80.69V3764.08ZM4080,3903.82c27.45,0,43.25-13.31,43.25-34.52v-0.83c0-22.87-16.64-34.52-43.67-34.52h-52.82v69.87H4080Z" transform="translate(-1220 -3764.08)"/><path class="cls-2" d="M1446.12,4331h-44.74l-0.18-.59,0-.41,0.14-.31c0.34-.34.69-0.72,1-1,90-78.09,203.45-176.07,288.08-249.29,64.06-54.76,112.67-96.31,125.61-107.35,6.88-5.87,9.9-11.88,10.26-21.41,1-25.59-.28-72.62-0.28-112.18v-59.38l0.6-.2c-0.34-8.34-6.6-8-6.6-7.93V3771H1220v134.12c0,8.47,7.94,14.88,16.41,14.88h413.91c-0.32,0-.65.83-1,1.12-90,78.12-203.54,176.22-288.18,249.46-64,54.72-112.57,96.26-125.5,107.29-6.88,5.87-10.24,11.9-10.6,21.43-1,25.59-.06,72.63-0.06,112.2v59.38c0,3.55,7,7.68,7.07,7.63l8.81-.5h574.64c8.47,0,15.48-5.93,15.48-14.4V4331H1446.12Z" transform="translate(-1220 -3764.08)"/><path class="cls-3" d="M1257.79,4452.59c15-13.07,68.92-58.68,137.51-119.11,1.1-1,2.2-1.49,3.3-2.46a3.07,3.07,0,0,1,1.66-1h-0.09c-70.94,62-127.07,109.65-142.47,123l-0.21,0c-8.85,7.7-9.34,8.32-24.93,23.94l0,0v0C1248.36,4461.1,1248.72,4460.46,1257.79,4452.59Z" transform="translate(-1220 -3764.08)"/><circle class="cls-4" cx="1232.62" cy="4476.85" transform="translate(-2541 -3165.45) rotate(-17.97)"/><path class="cls-4" d="M1232.61,4476.84h0c15.74-15.77,16.11-16.38,25.17-24.26,15-13.07,68.92-58.68,137.51-119.12-68.59,60.44-122.47,106-137.51,119.11C1248.72,4460.46,1248.36,4461.07,1232.61,4476.84Z" transform="translate(-1220 -3764.08)"/><circle class="cls-1" cx="1232.55" cy="4476.83" transform="translate(-2359.13 -3279.28) rotate(-15.32)"/><path class="cls-1" d="M1257.49,4452.77c-8.85,7.7-9.34,8.43-24.93,24.05h0C1248.15,4461.2,1248.64,4460.46,1257.49,4452.77Z" transform="translate(-1220 -3764.08)"/><line class="cls-1" x1="12.55" y1="712.74" x2="12.56" y2="712.74"/><path class="cls-5" d="M1400.26,4330.1c-0.55,0-1.11.76-1.66,1.25-1.1,1-2.21,1.84-3.3,2.8-68.59,60.44-122.47,106-137.51,119.06-9.06,7.87-11.11,9.92-26.85,25.69,2.66,0.44,42.41-.4,42.41-0.4L1445,4330.1h-44.74Z" transform="translate(-1220 -3764.08)"/><path class="cls-1" d="M1827.52,3944.63c0.38-15,.22-35.33.05-56.89l0-5.62c0-7.47-.07-14.69-0.07-21.6,0-22,.54-41.06-0.46-55.08v-27a1.22,1.22,0,0,0,0-.38c-0.35-6.91-4.87-7.74-7.65-7.69a3.37,3.37,0,0,0-1.66.49c-15.51,16.06-16.61,17-23.73,23.12l-2.23,1.94c-13.29,11.55-57.8,49.62-114.15,98.46L1647.48,3920h0.46c-58.87,52-126.53,110.06-192,166.61-34.09,29.45-66.29,57.53-95.37,82.69-72.43,61.92-123.37,105.51-125.5,107.33a40.48,40.48,0,0,0-4.8,4.82,25.14,25.14,0,0,0-7.25,18c-0.37,62.92.08,164.38,0.21,171.57l0,0.15c1.44,7.36,6.16,8.36,8.54,7.83a7.14,7.14,0,0,0,3.16-1.94l3.81-4.21c9.79-9.84,12.42-12.48,19.81-18.91l0.21-.18q5.74-5,18.65-16c26.26-22.45,70.12-60,123.12-106.72l0,0.3,0.6-.36H1401v-0.5l0.44-.33-0.16-.22a0.41,0.41,0,0,0-.1-0.27v0l0.41,0.33c0.11-.09.35-0.2,0.45-0.3l0.27-.25c61.65-53.52,135.82-117.63,201.26-174.19,30.71-26.54,60.19-52,86.81-75.06,64.7-55.32,113.2-96.75,125.61-107.33,6-5.1,11.52-11.3,11.56-22,0-1,0-2.09,0-3.13S1827.52,3945.62,1827.52,3944.63Z" transform="translate(-1220 -3764.08)"/></svg>