<?xml version="1.0" encoding="UTF-8" standalone="no"?>
<!-- Created with Inkscape (http://www.inkscape.org/) -->

<svg
   xmlns:dc="http://purl.org/dc/elements/1.1/"
   xmlns:cc="http://creativecommons.org/ns#"
   xmlns:rdf="http://www.w3.org/1999/02/22-rdf-syntax-ns#"
   xmlns:svg="http://www.w3.org/2000/svg"
   xmlns="http://www.w3.org/2000/svg"
   version="1.1"
   width="78"
   height="20"
   viewBox="0 0 78 20"
   id="svg2">
  <title
     id="title4">scribd_logo</title>
  <desc
     id="desc6">Created with Sketch.</desc>
  <metadata
     id="metadata23">
    <rdf:RDF>
      <cc:Work
         rdf:about="">
        <dc:format>image/svg+xml</dc:format>
        <dc:type
           rdf:resource="http://purl.org/dc/dcmitype/StillImage" />
        <dc:title>scribd_logo</dc:title>
      </cc:Work>
    </rdf:RDF>
  </metadata>
  <defs
     id="defs8" />
  <g
     id="Page-1"
     style="fill:#1a7bba;fill-opacity:1;fill-rule:evenodd;stroke:none">
    <g
       transform="translate(-59,-71)"
       id="white-text-overlay-with-promo"
       style="fill:#1a7bba;fill-opacity:1">
      <g
         transform="translate(59,71)"
         id="scribd_logo"
         style="fill:#1a7bba;fill-opacity:1">
        <path
           d="m 77.804093,17.504849 c 0,1.229696 -0.996163,2.226969 -2.222698,2.226969 -1.226535,0 -2.222697,-0.997273 -2.222697,-2.226969 0,-1.230607 0.996162,-2.228182 2.222697,-2.228182 1.226535,0 2.222698,0.997575 2.222698,2.228182"
           id="Fill-1"
           style="fill:#1a7bba;fill-opacity:1" />
        <path
           d="m 42.141465,6.3378788 0,10.1412122 -1.319349,0 0,3.252727 5.196977,0 0,-13.3939392 -3.877628,0"
           id="Fill-2"
           style="fill:#1a7bba;fill-opacity:1" />
        <path
           d="M 7.7407442,7.9572727 C 5.9473488,7.3039394 4.576,6.7021212 4.576,5.4118182 c 0,-1.1945455 0.975907,-1.9357576 2.546186,-1.9357576 0.9520233,0 1.5926512,0.1821212 2.0044187,0.3745455 -0.062279,0.1815151 -0.1015814,0.3975757 -0.1015814,0.72 0,1.0733333 0.8238372,2.2154545 2.3499767,2.2154545 1.32207,0 2.210907,-0.969697 2.210907,-2.4121212 0,-2.4224242 -2.82614,-4.31909092 -6.436814,-4.31909092 -3.7875349,0 -6.43499998,2.29484852 -6.43499998,5.58151512 0,3.6048485 2.50506978,4.7878784 6.04772088,6.0675754 1.9500001,0.682425 3.1596047,1.350607 3.1596047,2.570909 0,1.37394 -1.0817209,2.162122 -2.9667209,2.162122 -0.9598838,0 -1.848721,-0.209697 -2.4893489,-0.579394 0.1139768,-0.306667 0.1644651,-0.622122 0.1644651,-0.99394 0,-1.037272 -0.8982092,-2.158484 -2.3484651,-2.158484 -1.33567438,0 -2.26623252,1.037878 -2.26623252,2.523939 0,2.508182 3.16444182,4.627879 6.91116282,4.627879 4.1466979,0 6.8274189,-2.290606 6.8274189,-5.833637 0,-3.631515 -2.606349,-4.8506057 -6.0129538,-6.0660603"
           id="Fill-3"
           style="fill:#1a7bba;fill-opacity:1" />
        <path
           d="m 18.600884,12.985758 c 0,-2.57394 1.674581,-3.5072732 2.799232,-3.5072732 0.887023,0 1.467489,0.3139394 1.74593,0.5387882 -0.178674,0.301818 -0.290837,0.674545 -0.290837,1.004242 0,1.185758 1.000093,2.187273 2.183698,2.187273 1.350791,0 2.293442,-0.992121 2.293442,-2.411818 0,-2.1527276 -2.372349,-4.4590912 -5.905326,-4.4590912 -4.043907,0 -6.547465,3.4209091 -6.547465,6.5906062 0,4.013333 2.924093,6.816666 7.107372,6.816666 l 4.82814,0 0,-3.253636 -4.575396,0 c -2.142883,0 -3.63879,-1.441515 -3.63879,-3.505757"
           id="Fill-4"
           style="fill:#1a7bba;fill-opacity:1" />
        <path
           d="m 37.743233,6.3378788 c -1.250117,0 -2.418303,0.7381818 -3.553535,2.2521212 l 0,-2.0278788 -5.427652,0 0,3.2533334 1.816977,0 0,6.6724244 -1.816977,0 0,3.249697 7.666977,0 0,-3.249697 -2.127163,0 0,-4.567879 c 0.461954,-0.843333 1.241652,-1.629697 1.953326,-1.9845455 0.346163,0.5248485 0.990116,1.0015155 1.935791,1.0015155 1.187535,0 2.153767,-1.006667 2.153767,-2.2439397 0,-1.1718182 -0.803279,-2.3551515 -2.601511,-2.3551515"
           id="Fill-5"
           style="fill:#1a7bba;fill-opacity:1" />
        <path
           d="m 54.08786,6.3378788 -2.30886,0 0,-5.1084849 -3.771814,0 0,18.5096971 c 0,0 4.319326,0.0061 5.884767,0.0061 3.484001,0 6.212489,-2.969393 6.212489,-6.759393 0,-3.8515156 -2.53107,-6.6478792 -6.016582,-6.6478792 l 0,0 z m -2.30886,3.3084848 1.610186,0 c 1.739884,0 2.909884,1.3539394 2.909884,3.3666664 0,2.363334 -1.507396,3.440606 -2.909884,3.440606 l -1.610186,0 0,-6.8072724 0,0 z"
           id="Fill-6"
           style="fill:#1a7bba;fill-opacity:1" />
        <path
           d="m 72.019093,17.504849 c 0,-1.179091 0.572302,-2.222728 1.454791,-2.873637 l 0,-13.4018181 -5.572768,0 0,3.239394 1.846907,0 0,1.8690909 -2.114465,0 c -3.482791,0 -6.210674,2.9681818 -6.210674,6.7587882 0,3.853333 2.528953,6.645151 6.016279,6.645151 l 5.367488,0 c -0.491884,-0.613636 -0.787558,-1.391212 -0.787558,-2.236969 l 0,0 z m -2.27107,-1.02394 -1.610186,0 c -1.741093,0 -2.911093,-1.370909 -2.911093,-3.410909 0,-2.352424 1.510117,-3.4236364 2.911093,-3.4236364 l 1.610186,0 0,6.8345454 0,0 z"
           id="Fill-7"
           style="fill:#1a7bba;fill-opacity:1" />
        <path
           d="m 42.141465,1.2293939 3.877628,0 0,3.4142425 -3.877628,0 0,-3.4142425 z"
           id="Fill-8"
           style="fill:#1a7bba;fill-opacity:1" />
      </g>
    </g>
  </g>
</svg>
